{
  "asset": {
    "generator": "Khronos glTF Blender I/O v3.6.27",
    "version": "2.0"
  },
  "scene": 0,
  "scenes": [
    {
      "name": "Scene",
      "nodes": [
        0
      ]
    }
  ],
  "nodes": [
    {
      "mesh": 0,
      "name": "boombox"
    }
  ],
  "materials": [
    {
      "doubleSided": true,
      "name": "boombox",
      "normalTexture": {
        "index": 0
      },
      "pbrMetallicRoughness": {
        "baseColorTexture": {
          "index": 1
        },
        "metallicRoughnessTexture": {
          "index": 2
        }
      }
    },
    {
      "alphaCutoff": 0.5,
      "alphaMode": "MASK",
      "doubleSided": true,
      "name": "boombox_speakers",
      "pbrMetallicRoughness": {
        "baseColorTexture": {
          "index": 3
        },
        "metallicRoughnessTexture": {
          "index": 4
        }
      }
    }
  ],
  "meshes": [
    {
      "name": "Plane.095",
      "primitives": [
        {
          "attributes": {
            "POSITION": 0,
            "NORMAL": 1,
            "TEXCOORD_0": 2
          },
          "indices": 3,
          "material": 0
        },
        {
          "attributes": {
            "POSITION": 4,
            "NORMAL": 5,
            "TEXCOORD_0": 6
          },
          "indices": 7,
          "material": 1
        }
      ]
    }
  ],
  "textures": [
    {
      "sampler": 0,
      "source": 0
    },
    {
      "sampler": 0,
      "source": 1
    },
    {
      "sampler": 0,
      "source": 2
    },
    {
      "sampler": 0,
      "source": 3
    },
    {
      "sampler": 0,
      "source": 4
    }
  ],
  "images": [
    {
      "mimeType": "image/jpeg",
      "name": "boombox_nor_gl",
      "uri": "textures/boombox_nor_gl_4k.jpg"
    },
    {
      "mimeType": "image/jpeg",
      "name": "boombox_diff",
      "uri": "textures/boombox_diff_4k.jpg"
    },
    {
      "mimeType": "image/jpeg",
      "name": "boombox_metal-boombox_rough",
      "uri": "textures/boombox_arm_4k.jpg"
    },
    {
      "mimeType": "image/jpeg",
      "name": "boombox_speakers_diff",
      "uri": "textures/boombox_speakers_diff_4k.jpg"
    },
    {
      "mimeType": "image/jpeg",
      "name": "boombox_speakers_metal-boombox_speakers_rough",
      "uri": "textures/boombox_speakers_arm_4k.jpg"
    }
  ],
  "accessors": [
    {
      "bufferView": 0,
      "componentType": 5126,
      "count": 8122,
      "max": [
        0.3618898093700409,
        0.47010064125061035,
        0.11312616616487503
      ],
      "min": [
        -0.3618898093700409,
        0,
        -0.07333849370479584
      ],
      "type": "VEC3"
    },
    {
      "bufferView": 1,
      "componentType": 5126,
      "count": 8122,
      "type": "VEC3"
    },
    {
      "bufferView": 2,
      "componentType": 5126,
      "count": 8122,
      "type": "VEC2"
    },
    {
      "bufferView": 3,
      "componentType": 5123,
      "count": 29688,
      "type": "SCALAR"
    },
    {
      "bufferView": 4,
      "componentType": 5126,
      "count": 245,
      "max": [
        0.3500259220600128,
        0.247953861951828,
        0.11302733421325684
      ],
      "min": [
        -0.3500259220600128,
        0.016166947782039642,
        0.08360657840967178
      ],
      "type": "VEC3"
    },
    {
      "bufferView": 5,
      "componentType": 5126,
      "count": 245,
      "type": "VEC3"
    },
    {
      "bufferView": 6,
      "componentType": 5126,
      "count": 245,
      "type": "VEC2"
    },
    {
      "bufferView": 7,
      "componentType": 5123,
      "count": 816,
      "type": "SCALAR"
    }
  ],
  "bufferViews": [
    {
      "buffer": 0,
      "byteLength": 97464,
      "byteOffset": 0,
      "target": 34962
    },
    {
      "buffer": 0,
      "byteLength": 97464,
      "byteOffset": 97464,
      "target": 34962
    },
    {
      "buffer": 0,
      "byteLength": 64976,
      "byteOffset": 194928,
      "target": 34962
    },
    {
      "buffer": 0,
      "byteLength": 59376,
      "byteOffset": 259904,
      "target": 34963
    },
    {
      "buffer": 0,
      "byteLength": 2940,
      "byteOffset": 319280,
      "target": 34962
    },
    {
      "buffer": 0,
      "byteLength": 2940,
      "byteOffset": 322220,
      "target": 34962
    },
    {
      "buffer": 0,
      "byteLength": 1960,
      "byteOffset": 325160,
      "target": 34962
    },
    {
      "buffer": 0,
      "byteLength": 1632,
      "byteOffset": 327120,
      "target": 34963
    }
  ],
  "samplers": [
    {
      "magFilter": 9729,
      "minFilter": 9987
    }
  ],
  "buffers": [
    {
      "byteLength": 328752,
      "uri": "boombox.bin"
    }
  ]
}