{
  "asset": {
    "generator": "Khronos glTF Blender I/O v3.5.30",
    "version": "2.0"
  },
  "extensionsUsed": [
    "KHR_materials_clearcoat",
    "KHR_materials_specular",
    "KHR_materials_ior"
  ],
  "scene": 0,
  "scenes": [
    {
      "name": "Scene",
      "nodes": [
        0,
        1
      ]
    }
  ],
  "nodes": [
    {
      "mesh": 0,
      "name": "mantel_clock_01"
    },
    {
      "mesh": 1,
      "name": "mantel_clock_01_glass",
      "translation": [
        0,
        0.09149909764528275,
        0.05647554621100426
      ]
    }
  ],
  "materials": [
    {
      "doubleSided": true,
      "name": "mantel_clock_01",
      "normalTexture": {
        "index": 0
      },
      "pbrMetallicRoughness": {
        "baseColorTexture": {
          "index": 1
        },
        "metallicRoughnessTexture": {
          "index": 2
        }
      }
    },
    {
      "alphaMode": "BLEND",
      "doubleSided": true,
      "extensions": {
        "KHR_materials_clearcoat": {
          "clearcoatFactor": 1,
          "clearcoatRoughnessFactor": 0.009999999776482582
        },
        "KHR_materials_specular": {
          "specularColorFactor": [
            2.371357614441398,
            2.371357614441398,
            2.371357614441398
          ]
        },
        "KHR_materials_ior": {
          "ior": 1.4500000476837158
        }
      },
      "name": "mantel_clock_01_glass",
      "normalTexture": {
        "index": 3
      },
      "pbrMetallicRoughness": {
        "baseColorFactor": [
          1,
          1,
          1,
          0.30000001192092896
        ],
        "baseColorTexture": {
          "index": 4
        },
        "metallicFactor": 0,
        "metallicRoughnessTexture": {
          "index": 5
        }
      }
    }
  ],
  "meshes": [
    {
      "name": "Plane.021",
      "primitives": [
        {
          "attributes": {
            "POSITION": 0,
            "TEXCOORD_0": 1,
            "NORMAL": 2
          },
          "indices": 3,
          "material": 0
        }
      ]
    },
    {
      "name": "Plane.001",
      "primitives": [
        {
          "attributes": {
            "POSITION": 4,
            "TEXCOORD_0": 5,
            "NORMAL": 6
          },
          "indices": 7,
          "material": 1
        }
      ]
    }
  ],
  "textures": [
    {
      "sampler": 0,
      "source": 0
    },
    {
      "sampler": 0,
      "source": 1
    },
    {
      "sampler": 0,
      "source": 2
    },
    {
      "sampler": 0,
      "source": 0
    },
    {
      "sampler": 0,
      "source": 1
    },
    {
      "sampler": 0,
      "source": 3
    }
  ],
  "images": [
    {
      "mimeType": "image/jpeg",
      "name": "mantel_clock_01_nor_gl",
      "uri": "textures/mantel_clock_01_nor_gl_4k.jpg"
    },
    {
      "mimeType": "image/jpeg",
      "name": "mantel_clock_01_diff",
      "uri": "textures/mantel_clock_01_diff_4k.jpg"
    },
    {
      "mimeType": "image/jpeg",
      "name": "mantel_clock_01_metal-mantel_clock_01_rough",
      "uri": "textures/mantel_clock_01_arm_4k.jpg"
    },
    {
      "mimeType": "image/jpeg",
      "name": "mantel_clock_01_rough",
      "uri": "textures/mantel_clock_01_arm_4k.jpg"
    }
  ],
  "accessors": [
    {
      "bufferView": 0,
      "componentType": 5126,
      "count": 14979,
      "max": [
        0.17117002606391907,
        0.1609499454498291,
        0.06308429688215256
      ],
      "min": [
        -0.17117002606391907,
        0.0004705276223830879,
        -0.06308429688215256
      ],
      "type": "VEC3"
    },
    {
      "bufferView": 1,
      "componentType": 5126,
      "count": 14979,
      "type": "VEC2"
    },
    {
      "bufferView": 2,
      "componentType": 5126,
      "count": 14979,
      "type": "VEC3"
    },
    {
      "bufferView": 3,
      "componentType": 5123,
      "count": 75723,
      "type": "SCALAR"
    },
    {
      "bufferView": 4,
      "componentType": 5126,
      "count": 257,
      "max": [
        0.05397588014602661,
        0.05397584289312363,
        0.001674707978963852
      ],
      "min": [
        -0.05397588014602661,
        -0.053975917398929596,
        -0.0025894194841384888
      ],
      "type": "VEC3"
    },
    {
      "bufferView": 5,
      "componentType": 5126,
      "count": 257,
      "type": "VEC2"
    },
    {
      "bufferView": 6,
      "componentType": 5126,
      "count": 257,
      "type": "VEC3"
    },
    {
      "bufferView": 7,
      "componentType": 5123,
      "count": 1440,
      "type": "SCALAR"
    }
  ],
  "bufferViews": [
    {
      "buffer": 0,
      "byteLength": 179748,
      "byteOffset": 0,
      "target": 34962
    },
    {
      "buffer": 0,
      "byteLength": 119832,
      "byteOffset": 179748,
      "target": 34962
    },
    {
      "buffer": 0,
      "byteLength": 179748,
      "byteOffset": 299580,
      "target": 34962
    },
    {
      "buffer": 0,
      "byteLength": 151446,
      "byteOffset": 479328,
      "target": 34963
    },
    {
      "buffer": 0,
      "byteLength": 3084,
      "byteOffset": 630776,
      "target": 34962
    },
    {
      "buffer": 0,
      "byteLength": 2056,
      "byteOffset": 633860,
      "target": 34962
    },
    {
      "buffer": 0,
      "byteLength": 3084,
      "byteOffset": 635916,
      "target": 34962
    },
    {
      "buffer": 0,
      "byteLength": 2880,
      "byteOffset": 639000,
      "target": 34963
    }
  ],
  "samplers": [
    {
      "magFilter": 9729,
      "minFilter": 9987
    }
  ],
  "buffers": [
    {
      "byteLength": 641880,
      "uri": "mantel_clock_01.bin"
    }
  ]
}